{
  "accessors": [
    {
      "name": "birthday_cake_1_0_positions",
      "componentType": 5126,
      "count": 11106,
      "min": [
        -8.396200180053711,
        -8.32960033416748,
        -0.23739999532699585
      ],
      "max": [
        8.274700164794922,
        8.32960033416748,
        6.839000225067139
      ],
      "type": "VEC3",
      "bufferView": 0,
      "byteOffset": 0
    },
    {
      "name": "birthday_cake_1_0_normals",
      "componentType": 5126,
      "count": 11106,
      "min": [
        -1,
        -0.9998292326927185,
        -1
      ],
      "max": [
        1,
        0.9998292326927185,
        0.9999995827674866
      ],
      "type": "VEC3",
      "bufferView": 1,
      "byteOffset": 0
    },
    {
      "name": "birthday_cake_1_0_texcoords",
      "componentType": 5126,
      "count": 11106,
      "min": [
        0.8514999747276306,
        0.01360000018030405
      ],
      "max": [
        0.9616000056266785,
        0.14839999377727509
      ],
      "type": "VEC2",
      "bufferView": 2,
      "byteOffset": 0
    },
    {
      "name": "birthday_cake_1_0_indices",
      "componentType": 5123,
      "count": 37137,
      "min": [
        0
      ],
      "max": [
        11105
      ],
      "type": "SCALAR",
      "bufferView": 3,
      "byteOffset": 0
    },
    {
      "name": "birthday_cake_1_1_positions",
      "componentType": 5126,
      "count": 1056,
      "min": [
        -7.973299980163574,
        -7.973499774932861,
        0.029200000688433647
      ],
      "max": [
        7.973299980163574,
        7.973499774932861,
        5.622799873352051
      ],
      "type": "VEC3",
      "bufferView": 0,
      "byteOffset": 133272
    },
    {
      "name": "birthday_cake_1_1_normals",
      "componentType": 5126,
      "count": 1056,
      "min": [
        -0.9997071623802185,
        -0.9995109438896179,
        -0.8576146960258484
      ],
      "max": [
        0.9997071623802185,
        0.9995109438896179,
        0.857613742351532
      ],
      "type": "VEC3",
      "bufferView": 1,
      "byteOffset": 133272
    },
    {
      "name": "birthday_cake_1_1_texcoords",
      "componentType": 5126,
      "count": 1056,
      "min": [
        0.8514999747276306,
        0.052000001072883606
      ],
      "max": [
        0.8881999850273132,
        0.08860000222921371
      ],
      "type": "VEC2",
      "bufferView": 2,
      "byteOffset": 88848
    },
    {
      "name": "birthday_cake_1_1_indices",
      "componentType": 5123,
      "count": 3456,
      "min": [
        0
      ],
      "max": [
        1055
      ],
      "type": "SCALAR",
      "bufferView": 3,
      "byteOffset": 74276
    },
    {
      "name": "birthday_cake_1_2_positions",
      "componentType": 5126,
      "count": 1056,
      "min": [
        -7.911900043487549,
        -7.914700031280518,
        0.029200000688433647
      ],
      "max": [
        7.911900043487549,
        7.914700031280518,
        5.622799873352051
      ],
      "type": "VEC3",
      "bufferView": 0,
      "byteOffset": 145944
    },
    {
      "name": "birthday_cake_1_2_normals",
      "componentType": 5126,
      "count": 1056,
      "min": [
        -0.9997344613075256,
        -0.9983912706375122,
        -0.8576059937477112
      ],
      "max": [
        0.9997344613075256,
        0.9983912706375122,
        0.8576259613037109
      ],
      "type": "VEC3",
      "bufferView": 1,
      "byteOffset": 145944
    },
    {
      "name": "birthday_cake_1_2_texcoords",
      "componentType": 5126,
      "count": 1056,
      "min": [
        0.9115999937057495,
        0.11550000309944153
      ],
      "max": [
        0.9455999732017517,
        0.14839999377727509
      ],
      "type": "VEC2",
      "bufferView": 2,
      "byteOffset": 97296
    },
    {
      "name": "birthday_cake_1_2_indices",
      "componentType": 5123,
      "count": 3456,
      "min": [
        0
      ],
      "max": [
        1055
      ],
      "type": "SCALAR",
      "bufferView": 3,
      "byteOffset": 81188
    },
    {
      "name": "birthday_cake_1_3_positions",
      "componentType": 5126,
      "count": 73,
      "min": [
        -7.39769983291626,
        -7.39870023727417,
        5.650599956512451
      ],
      "max": [
        7.39769983291626,
        7.39870023727417,
        5.6519999504089355
      ],
      "type": "VEC3",
      "bufferView": 0,
      "byteOffset": 158616
    },
    {
      "name": "birthday_cake_1_3_normals",
      "componentType": 5126,
      "count": 73,
      "min": [
        -0.00639986852183938,
        -0.006299872882664204,
        0.9999792575836182
      ],
      "max": [
        0.00639986852183938,
        0.006299872882664204,
        1
      ],
      "type": "VEC3",
      "bufferView": 1,
      "byteOffset": 158616
    },
    {
      "name": "birthday_cake_1_3_texcoords",
      "componentType": 5126,
      "count": 73,
      "min": [
        0.0005000000237487257,
        0.0005000000237487257
      ],
      "max": [
        0.9994999766349792,
        0.9994999766349792
      ],
      "type": "VEC2",
      "bufferView": 2,
      "byteOffset": 105744
    },
    {
      "name": "birthday_cake_1_3_indices",
      "componentType": 5123,
      "count": 324,
      "min": [
        0
      ],
      "max": [
        72
      ],
      "type": "SCALAR",
      "bufferView": 3,
      "byteOffset": 88100
    },
    {
      "name": "birthday_cake_1_4_positions",
      "componentType": 5126,
      "count": 6665,
      "min": [
        -8.396200180053711,
        -8.329299926757812,
        -0.23739999532699585
      ],
      "max": [
        8.274700164794922,
        8.32960033416748,
        6.844299793243408
      ],
      "type": "VEC3",
      "bufferView": 0,
      "byteOffset": 159492
    },
    {
      "name": "birthday_cake_1_4_normals",
      "componentType": 5126,
      "count": 6665,
      "min": [
        -0.9994379878044128,
        -0.9995388388633728,
        -0.9999842643737793
      ],
      "max": [
        0.9990594387054443,
        0.9987429976463318,
        0.9999198913574219
      ],
      "type": "VEC3",
      "bufferView": 1,
      "byteOffset": 159492
    },
    {
      "name": "birthday_cake_1_4_texcoords",
      "componentType": 5126,
      "count": 6665,
      "min": [
        0.894599974155426,
        0.027300000190734863
      ],
      "max": [
        0.9944000244140625,
        0.14910000562667847
      ],
      "type": "VEC2",
      "bufferView": 2,
      "byteOffset": 106328
    },
    {
      "name": "birthday_cake_1_4_indices",
      "componentType": 5123,
      "count": 23349,
      "min": [
        0
      ],
      "max": [
        6664
      ],
      "type": "SCALAR",
      "bufferView": 3,
      "byteOffset": 88748
    },
    {
      "name": "birthday_cake_1_5_positions",
      "componentType": 5126,
      "count": 5129,
      "min": [
        -7.42110013961792,
        -7.3190999031066895,
        5.645500183105469
      ],
      "max": [
        7.433899879455566,
        7.529300212860107,
        6.846799850463867
      ],
      "type": "VEC3",
      "bufferView": 0,
      "byteOffset": 239472
    },
    {
      "name": "birthday_cake_1_5_normals",
      "componentType": 5126,
      "count": 5129,
      "min": [
        -0.9988389611244202,
        -0.9997909069061279,
        -0.999986469745636
      ],
      "max": [
        0.9997305274009705,
        0.999036431312561,
        0.9999407529830933
      ],
      "type": "VEC3",
      "bufferView": 1,
      "byteOffset": 239472
    },
    {
      "name": "birthday_cake_1_5_texcoords",
      "componentType": 5126,
      "count": 5129,
      "min": [
        0.894599974155426,
        0.05719999969005585
      ],
      "max": [
        0.9259999990463257,
        0.08860000222921371
      ],
      "type": "VEC2",
      "bufferView": 2,
      "byteOffset": 159648
    },
    {
      "name": "birthday_cake_1_5_indices",
      "componentType": 5123,
      "count": 19320,
      "min": [
        0
      ],
      "max": [
        5128
      ],
      "type": "SCALAR",
      "bufferView": 3,
      "byteOffset": 135448
    },
    {
      "name": "birthday_cake_1_6_positions",
      "componentType": 5126,
      "count": 6294,
      "min": [
        -3.1447999477386475,
        1.9400999546051025,
        5.83650016784668
      ],
      "max": [
        4.41349983215332,
        4.813600063323975,
        8.737799644470215
      ],
      "type": "VEC3",
      "bufferView": 0,
      "byteOffset": 301020
    },
    {
      "name": "birthday_cake_1_6_normals",
      "componentType": 5126,
      "count": 6294,
      "min": [
        -0.9999818205833435,
        -0.9999051094055176,
        -0.9222153425216675
      ],
      "max": [
        0.9995762705802917,
        0.9999638795852661,
        0.9961456656455994
      ],
      "type": "VEC3",
      "bufferView": 1,
      "byteOffset": 301020
    },
    {
      "name": "birthday_cake_1_6_texcoords",
      "componentType": 5126,
      "count": 6294,
      "min": [
        0.894599974155426,
        0.009100000374019146
      ],
      "max": [
        0.9575999975204468,
        0.11140000075101852
      ],
      "type": "VEC2",
      "bufferView": 2,
      "byteOffset": 200680
    },
    {
      "name": "birthday_cake_1_6_indices",
      "componentType": 5123,
      "count": 20160,
      "min": [
        0
      ],
      "max": [
        6293
      ],
      "type": "SCALAR",
      "bufferView": 3,
      "byteOffset": 174088
    },
    {
      "name": "birthday_cake_1_7_positions",
      "componentType": 5126,
      "count": 6336,
      "min": [
        -4.5278000831604,
        0.29179999232292175,
        5.824900150299072
      ],
      "max": [
        4.391200065612793,
        4.789299964904785,
        8.705900192260742
      ],
      "type": "VEC3",
      "bufferView": 0,
      "byteOffset": 376548
    },
    {
      "name": "birthday_cake_1_7_normals",
      "componentType": 5126,
      "count": 6336,
      "min": [
        -0.9999644160270691,
        -0.9999056458473206,
        -0.2209053486585617
      ],
      "max": [
        0.9999576807022095,
        0.9999991655349731,
        0.9999943375587463
      ],
      "type": "VEC3",
      "bufferView": 1,
      "byteOffset": 376548
    },
    {
      "name": "birthday_cake_1_7_texcoords",
      "componentType": 5126,
      "count": 6336,
      "min": [
        0.8611000180244446,
        0.008999999612569809
      ],
      "max": [
        0.9833999872207642,
        0.14749999344348907
      ],
      "type": "VEC2",
      "bufferView": 2,
      "byteOffset": 251032
    },
    {
      "name": "birthday_cake_1_7_indices",
      "componentType": 5123,
      "count": 17424,
      "min": [
        0
      ],
      "max": [
        6335
      ],
      "type": "SCALAR",
      "bufferView": 3,
      "byteOffset": 214408
    },
    {
      "name": "birthday_cake_1_8_positions",
      "componentType": 5126,
      "count": 3353,
      "min": [
        -4.563000202178955,
        0.32839998602867126,
        5.408899784088135
      ],
      "max": [
        4.28000020980835,
        4.9293999671936035,
        8.856200218200684
      ],
      "type": "VEC3",
      "bufferView": 0,
      "byteOffset": 452580
    },
    {
      "name": "birthday_cake_1_8_normals",
      "componentType": 5126,
      "count": 3353,
      "min": [
        -0.9984281659126282,
        -0.9981685876846313,
        -0.9998223781585693
      ],
      "max": [
        0.9978314638137817,
        0.999626636505127,
        0.9998563528060913
      ],
      "type": "VEC3",
      "bufferView": 1,
      "byteOffset": 452580
    },
    {
      "name": "birthday_cake_1_8_texcoords",
      "componentType": 5126,
      "count": 3353,
      "min": [
        0.8518000245094299,
        0.005499999970197678
      ],
      "max": [
        0.9934999942779541,
        0.1467999964952469
      ],
      "type": "VEC2",
      "bufferView": 2,
      "byteOffset": 301720
    },
    {
      "name": "birthday_cake_1_8_indices",
      "componentType": 5123,
      "count": 12408,
      "min": [
        0
      ],
      "max": [
        3352
      ],
      "type": "SCALAR",
      "bufferView": 3,
      "byteOffset": 249256
    },
    {
      "name": "birthday_cake_1_9_positions",
      "componentType": 5126,
      "count": 3774,
      "min": [
        -4.547500133514404,
        2.0120999813079834,
        5.839700222015381
      ],
      "max": [
        -0.8137000203132629,
        3.3896000385284424,
        8.734600067138672
      ],
      "type": "VEC3",
      "bufferView": 0,
      "byteOffset": 492816
    },
    {
      "name": "birthday_cake_1_9_normals",
      "componentType": 5126,
      "count": 3774,
      "min": [
        -0.9998470544815063,
        -0.9996451139450073,
        -0.9050951600074768
      ],
      "max": [
        0.9999887347221375,
        0.9999789595603943,
        0.9912302494049072
      ],
      "type": "VEC3",
      "bufferView": 1,
      "byteOffset": 492816
    },
    {
      "name": "birthday_cake_1_9_texcoords",
      "componentType": 5126,
      "count": 3774,
      "min": [
        0.8944000005722046,
        0.10819999873638153
      ],
      "max": [
        0.994700014591217,
        0.14839999377727509
      ],
      "type": "VEC2",
      "bufferView": 2,
      "byteOffset": 328544
    },
    {
      "name": "birthday_cake_1_9_indices",
      "componentType": 5123,
      "count": 12096,
      "min": [
        0
      ],
      "max": [
        3773
      ],
      "type": "SCALAR",
      "bufferView": 3,
      "byteOffset": 274072
    },
    {
      "name": "birthday_cake_1_10_positions",
      "componentType": 5126,
      "count": 3777,
      "min": [
        0.16699999570846558,
        0.26350000500679016,
        6.030900001525879
      ],
      "max": [
        3.0390000343322754,
        3.432300090789795,
        8.736200332641602
      ],
      "type": "VEC3",
      "bufferView": 0,
      "byteOffset": 538104
    },
    {
      "name": "birthday_cake_1_10_normals",
      "componentType": 5126,
      "count": 3777,
      "min": [
        -0.9997552037239075,
        -0.9996144771575928,
        -0.9093106985092163
      ],
      "max": [
        0.9998967051506042,
        0.9997557401657104,
        0.9943047761917114
      ],
      "type": "VEC3",
      "bufferView": 1,
      "byteOffset": 538104
    },
    {
      "name": "birthday_cake_1_10_texcoords",
      "componentType": 5126,
      "count": 3777,
      "min": [
        0.8514999747276306,
        0.004399999976158142
      ],
      "max": [
        0.994700014591217,
        0.13850000500679016
      ],
      "type": "VEC2",
      "bufferView": 2,
      "byteOffset": 358736
    },
    {
      "name": "birthday_cake_1_10_indices",
      "componentType": 5123,
      "count": 12096,
      "min": [
        0
      ],
      "max": [
        3776
      ],
      "type": "SCALAR",
      "bufferView": 3,
      "byteOffset": 298264
    }
  ],
  "asset": {
    "generator": "obj2gltf",
    "version": "2.0"
  },
  "buffers": [
    {
      "name": "10868_birthday-cake_v3",
      "byteLength": 2485724,
      "uri": "data:application/octet-stream;base64,"
    }
  ],
  "bufferViews": [
    {
      "name": "bufferView_0",
      "buffer": 0,
      "byteLength": 583428,
      "byteOffset": 0,
      "byteStride": 12,
      "target": 34962
    },
    {
      "name": "bufferView_1",
      "buffer": 0,
      "byteLength": 583428,
      "byteOffset": 583428,
      "byteStride": 12,
      "target": 34962
    },
    {
      "name": "bufferView_2",
      "buffer": 0,
      "byteLength": 388952,
      "byteOffset": 1166856,
      "byteStride": 8,
      "target": 34962
    },
    {
      "name": "bufferView_3",
      "buffer": 0,
      "byteLength": 322456,
      "byteOffset": 1555808,
      "target": 34963
    },
    {
      "buffer": 0,
      "byteOffset": 1878264,
      "byteLength": 607457
    }
  ],
  "images": [
    {
      "name": "candy_text_ornament",
      "mimeType": "image/jpeg",
      "bufferView": 4
    }
  ],
  "materials": [
    {
      "name": "white_candy",
      "pbrMetallicRoughness": {
        "baseColorFactor": [
          1,
          1,
          1,
          1
        ],
        "metallicFactor": 0,
        "roughnessFactor": 0.971
      },
      "emissiveFactor": [
        0,
        0,
        0
      ],
      "alphaMode": "OPAQUE",
      "doubleSided": false
    },
    {
      "name": "light_red_candy",
      "pbrMetallicRoughness": {
        "baseColorFactor": [
          1,
          0.5255,
          0.5255,
          1
        ],
        "metallicFactor": 0,
        "roughnessFactor": 0.971
      },
      "emissiveFactor": [
        0,
        0,
        0
      ],
      "alphaMode": "OPAQUE",
      "doubleSided": false
    },
    {
      "name": "light_blue_candy",
      "pbrMetallicRoughness": {
        "baseColorFactor": [
          0.4745,
          0.6471,
          1,
          1
        ],
        "metallicFactor": 0,
        "roughnessFactor": 0.971
      },
      "emissiveFactor": [
        0,
        0,
        0
      ],
      "alphaMode": "OPAQUE",
      "doubleSided": false
    },
    {
      "name": "24___Default",
      "pbrMetallicRoughness": {
        "baseColorTexture": {
          "index": 0
        },
        "baseColorFactor": [
          1,
          1,
          1,
          1
        ],
        "metallicFactor": 0,
        "roughnessFactor": 0.99
      },
      "emissiveFactor": [
        0,
        0,
        0
      ],
      "alphaMode": "OPAQUE",
      "doubleSided": false
    },
    {
      "name": "red_candy",
      "pbrMetallicRoughness": {
        "baseColorFactor": [
          1,
          0,
          0,
          1
        ],
        "metallicFactor": 0,
        "roughnessFactor": 0.971
      },
      "emissiveFactor": [
        0,
        0,
        0
      ],
      "alphaMode": "OPAQUE",
      "doubleSided": false
    },
    {
      "name": "blue_candy",
      "pbrMetallicRoughness": {
        "baseColorFactor": [
          0,
          0.4,
          1,
          1
        ],
        "metallicFactor": 0,
        "roughnessFactor": 0.971
      },
      "emissiveFactor": [
        0,
        0,
        0
      ],
      "alphaMode": "OPAQUE",
      "doubleSided": false
    },
    {
      "name": "candle_red",
      "pbrMetallicRoughness": {
        "baseColorFactor": [
          1,
          0.3373,
          0.3373,
          1
        ],
        "metallicFactor": 0,
        "roughnessFactor": 0.992
      },
      "emissiveFactor": [
        0,
        0,
        0
      ],
      "alphaMode": "OPAQUE",
      "doubleSided": false
    },
    {
      "name": "candle_white",
      "pbrMetallicRoughness": {
        "baseColorFactor": [
          1,
          1,
          1,
          1
        ],
        "metallicFactor": 0,
        "roughnessFactor": 0.992
      },
      "emissiveFactor": [
        0,
        0,
        0
      ],
      "alphaMode": "OPAQUE",
      "doubleSided": false
    },
    {
      "name": "black_candy",
      "pbrMetallicRoughness": {
        "baseColorFactor": [
          0,
          0,
          0,
          1
        ],
        "metallicFactor": 0,
        "roughnessFactor": 0.971
      },
      "emissiveFactor": [
        0,
        0,
        0
      ],
      "alphaMode": "OPAQUE",
      "doubleSided": false
    },
    {
      "name": "candle_blue",
      "pbrMetallicRoughness": {
        "baseColorFactor": [
          0.2902,
          0.2902,
          1,
          1
        ],
        "metallicFactor": 0,
        "roughnessFactor": 0.992
      },
      "emissiveFactor": [
        0,
        0,
        0
      ],
      "alphaMode": "OPAQUE",
      "doubleSided": false
    },
    {
      "name": "candle_yellow",
      "pbrMetallicRoughness": {
        "baseColorFactor": [
          1,
          0.8667,
          0.3373,
          1
        ],
        "metallicFactor": 0,
        "roughnessFactor": 0.992
      },
      "emissiveFactor": [
        0,
        0,
        0
      ],
      "alphaMode": "OPAQUE",
      "doubleSided": false
    }
  ],
  "meshes": [
    {
      "name": "birthday_cake_1",
      "primitives": [
        {
          "attributes": {
            "POSITION": 0,
            "NORMAL": 1,
            "TEXCOORD_0": 2
          },
          "indices": 3,
          "material": 0,
          "mode": 4
        },
        {
          "attributes": {
            "POSITION": 4,
            "NORMAL": 5,
            "TEXCOORD_0": 6
          },
          "indices": 7,
          "material": 1,
          "mode": 4
        },
        {
          "attributes": {
            "POSITION": 8,
            "NORMAL": 9,
            "TEXCOORD_0": 10
          },
          "indices": 11,
          "material": 2,
          "mode": 4
        },
        {
          "attributes": {
            "POSITION": 12,
            "NORMAL": 13,
            "TEXCOORD_0": 14
          },
          "indices": 15,
          "material": 3,
          "mode": 4
        },
        {
          "attributes": {
            "POSITION": 16,
            "NORMAL": 17,
            "TEXCOORD_0": 18
          },
          "indices": 19,
          "material": 4,
          "mode": 4
        },
        {
          "attributes": {
            "POSITION": 20,
            "NORMAL": 21,
            "TEXCOORD_0": 22
          },
          "indices": 23,
          "material": 5,
          "mode": 4
        },
        {
          "attributes": {
            "POSITION": 24,
            "NORMAL": 25,
            "TEXCOORD_0": 26
          },
          "indices": 27,
          "material": 6,
          "mode": 4
        },
        {
          "attributes": {
            "POSITION": 28,
            "NORMAL": 29,
            "TEXCOORD_0": 30
          },
          "indices": 31,
          "material": 7,
          "mode": 4
        },
        {
          "attributes": {
            "POSITION": 32,
            "NORMAL": 33,
            "TEXCOORD_0": 34
          },
          "indices": 35,
          "material": 8,
          "mode": 4
        },
        {
          "attributes": {
            "POSITION": 36,
            "NORMAL": 37,
            "TEXCOORD_0": 38
          },
          "indices": 39,
          "material": 9,
          "mode": 4
        },
        {
          "attributes": {
            "POSITION": 40,
            "NORMAL": 41,
            "TEXCOORD_0": 42
          },
          "indices": 43,
          "material": 10,
          "mode": 4
        }
      ]
    }
  ],
  "nodes": [
    {
      "name": "birthday_cake",
      "mesh": 0
    }
  ],
  "samplers": [
    {
      "wrapS": 10497,
      "wrapT": 10497
    }
  ],
  "scene": 0,
  "scenes": [
    {
      "nodes": [
        0
      ]
    }
  ],
  "textures": [
    {
      "name": "candy_text_ornament",
      "sampler": 0,
      "source": 0
    }
  ]
}
